<svg width="34" height="34" viewBox="0 0 34 34" xmlns="http://www.w3.org/2000/svg">
    <g fill="none" fill-rule="evenodd">
        <path d="M0 0h34v34H0z"/>
        <path d="M22.808 4.533c-2.465 0-4.83 1.151-6.375 2.97-1.544-1.819-3.91-2.97-6.375-2.97-4.363 0-7.791 3.438-7.791 7.813 0 5.37 4.816 9.745 12.112 16.393l2.054 1.861 2.055-1.875C25.782 22.09 30.6 17.715 30.6 12.346c0-4.375-3.428-7.813-7.792-7.813zm-6.233 22.09-.142.142-.141-.142C9.548 20.5 5.1 16.452 5.1 12.346c0-2.84 2.125-4.972 4.958-4.972 2.182 0 4.307 1.407 5.058 3.353h2.649c.737-1.946 2.862-3.353 5.043-3.353 2.834 0 4.959 2.131 4.959 4.972 0 4.106-4.449 8.154-11.192 14.277z" fill="#000" fill-rule="nonzero"/>
    </g>
</svg>
