<svg width="34" height="34" viewBox="0 0 34 34" xmlns="http://www.w3.org/2000/svg">
    <g fill="none" fill-rule="evenodd">
        <path d="M0 0h34v34H0z"/>
        <path d="M12.208 29.819c0 .783.65 1.424 1.445 1.424h5.776c.794 0 1.444-.64 1.444-1.424v-1.424h-8.665v1.424zm4.333-27.062c-5.574 0-10.109 4.472-10.109 9.97 0 3.39 1.719 6.367 4.332 8.176v3.219c0 .783.65 1.424 1.444 1.424h8.665c.794 0 1.444-.641 1.444-1.424v-3.22c2.613-1.808 4.332-4.785 4.332-8.175 0-5.498-4.535-9.97-10.108-9.97zm4.115 15.81-1.227.854v3.276h-5.776v-3.276l-1.228-.854c-1.95-1.34-3.105-3.518-3.105-5.84 0-3.931 3.235-7.122 7.22-7.122 3.986 0 7.22 3.19 7.22 7.122 0 2.322-1.155 4.5-3.104 5.84z" fill="#000" fill-rule="nonzero"/>
    </g>
</svg>
