<svg width="34" height="34" viewBox="0 0 34 34" xmlns="http://www.w3.org/2000/svg">
    <g fill="none" fill-rule="evenodd">
        <path d="M0 0h34v34H0z"/>
        <path d="M30.005 10.019a1.415 1.415 0 0 0 0-2.004l-4.02-4.02a1.415 1.415 0 0 0-2.004 0l-6.38 6.379-5.526-5.527a2.847 2.847 0 0 0-4.02 0l-2.7 2.7a2.847 2.847 0 0 0 0 4.02l5.526 5.527-6.407 6.408v6.024h6.024l6.422-6.422 5.527 5.527c1.35 1.35 3.168.853 4.02 0l2.7-2.7a2.847 2.847 0 0 0 0-4.02l-5.527-5.527 6.365-6.365zm-22.633-.47 2.685-2.699 1.805 1.805-1.677 1.69 2.004 2.004 1.69-1.69 1.705 1.704-2.7 2.7L7.373 9.55zm15.956 10.572-1.691 1.69 2.003 2.004 1.691-1.691 1.804 1.804-2.7 2.7L18.91 21.1l2.7-2.7 1.719 1.72zm-14.01 6.564H7.316V24.68L20.97 11.027l1.847 1.848.157.156L9.319 26.685zM22.974 9.01l2.003-2.003 2.003 2.003-2.003 2.003-2.003-2.003z" fill="#000" fill-rule="nonzero"/>
    </g>
</svg>
