<svg width="636" height="286" xmlns="http://www.w3.org/2000/svg">
    <g fill="none" fill-rule="evenodd" opacity=".2">
        <g opacity=".1" transform="translate(174 173)">
            <ellipse fill="#FFF" cx="57" cy="56.5" rx="57" ry="56.5"/>
            <circle fill="#40B0B7" cx="56.5" cy="56.5" r="45.5"/>
            <ellipse fill="#FFF" cx="56" cy="56.5" rx="34" ry="33.5"/>
            <circle fill="#40B0B7" cx="55.5" cy="57.5" r="24.5"/>
        </g>
        <g opacity=".1" transform="translate(348)">
            <ellipse fill="#FFF" cx="57" cy="56.5" rx="57" ry="56.5"/>
            <circle fill="#40B0B7" cx="56.5" cy="56.5" r="45.5"/>
            <ellipse fill="#FFF" cx="56" cy="56.5" rx="34" ry="33.5"/>
            <circle fill="#40B0B7" cx="55.5" cy="57.5" r="24.5"/>
        </g>
        <g opacity=".1" transform="translate(522)">
            <ellipse fill="#FFF" cx="57" cy="56.5" rx="57" ry="56.5"/>
            <ellipse fill="#40B0B7" cx="57.5" cy="56.5" rx="46.5" ry="45.5"/>
            <path stroke="#FFF" stroke-width="6" stroke-linecap="square" d="m33 33 49 48M82 33 33 81"/>
        </g>
        <g opacity=".1" transform="translate(174)">
            <ellipse fill="#FFF" cx="57" cy="56.5" rx="57" ry="56.5"/>
            <circle fill="#40B0B7" cx="56.5" cy="56.5" r="45.5"/>
            <path stroke="#FFF" stroke-width="6" d="M33 33v46h48V33z"/>
        </g>
        <g opacity=".1" transform="translate(348 173)">
            <ellipse fill="#FFF" cx="57" cy="56.5" rx="57" ry="56.5"/>
            <circle fill="#40B0B7" cx="56.5" cy="56.5" r="45.5"/>
            <path stroke="#FFF" stroke-width="6" d="M33 33v46h48V33z"/>
        </g>
        <g opacity=".1" transform="translate(0 173)">
            <ellipse fill="#FFF" cx="57" cy="56.5" rx="57" ry="56.5"/>
            <ellipse fill="#40B0B7" cx="58" cy="57.5" rx="46" ry="45.5"/>
            <path stroke="#FFF" stroke-width="6" stroke-linecap="square" d="m33 33 49 48M82 33 33 81"/>
        </g>
        <g opacity=".1" transform="translate(522 173)">
            <ellipse fill="#FFF" cx="57" cy="56.5" rx="57" ry="56.5"/>
            <circle fill="#40B0B7" cx="56.5" cy="56.5" r="45.5"/>
            <path stroke="#FFF" stroke-width="6" d="m27 75 28.937-52L85 75z"/>
        </g>
        <g opacity=".1">
            <ellipse fill="#FFF" cx="57" cy="56.5" rx="57" ry="56.5"/>
            <circle fill="#40B0B7" cx="56.5" cy="56.5" r="45.5"/>
            <path stroke="#FFF" stroke-width="6" d="m27 75 29.436-52L86 75z"/>
        </g>
    </g>
</svg>
