<svg width="136" height="24" viewBox="0 0 136 24" xmlns="http://www.w3.org/2000/svg">
    <g fill-rule="nonzero" fill="none">
        <g fill="#E50C84">
            <path d="m4.19 9.521-2.374 2.286a7.753 7.753 0 0 1-.351-2.227c0-2.734 1.138-4.946 3.413-6.636C6.538 1.714 8.9 1.1 11.968 1.1h4.834c1.816 0 3.672-.064 5.566-.19L21.182 3.91l-.235.542c-.244.576-.556.864-.937.864a1.68 1.68 0 0 1-.205-.014c.107-.489.16-.88.16-1.172 0-.645-.339-1.048-1.017-1.209-.679-.16-2.37-.241-5.076-.241h-1.42l-.777 7.09h2.856c1.65 0 3.115-.079 4.395-.235-1.113 1.338-2.237 2.007-3.37 2.007-.634 0-1.533-.049-2.695-.147-.478-.029-.815-.043-1.01-.043h-.352l-.146 1.274c-.206 1.855-.53 3.174-.975 3.955-.444.781-1.316 1.567-2.614 2.358l3.208.25 1.303.117c.918.068 2.017.102 3.296.102 2.158 0 3.955-.698 5.39-2.095.167.186.25.362.25.528 0 .273-.523.835-1.567 1.684-1.524 1.24-3.189 1.86-4.996 1.86-1.67 0-4.072-.14-7.207-.424l-5.463-.498c-.186-.01-.845-.049-1.978-.117l2.68-2.022c.967.166 2.13.313 3.487.44.957-.371 1.602-.899 1.934-1.582.332-.684.61-2.06.835-4.131L10.093 2.68H9.58c-1.894 0-3.379.388-4.453 1.164-1.074.777-1.611 1.848-1.611 3.216 0 .79.224 1.61.673 2.46zM27.876 12.95c2.168-4.112 4.302-6.168 6.401-6.168.547 0 1.094.127 1.641.381L33.853 9.42c-.313-.176-.713-.264-1.202-.264-1.015 0-2.087.823-3.215 2.469-1.128 1.645-1.79 3.356-1.985 5.134l-.395 3.574-2.168.732.044-.439.102-.952.117-.952.762-6.973.088-.762c.068-.576.103-1.045.103-1.406 0-.596-.166-.893-.499-.893-.78 0-1.557.834-2.329 2.504-.244-.185-.361-.376-.351-.57.03-.597.574-1.385 1.633-2.367 1.06-.981 1.897-1.472 2.512-1.472.83 0 1.245.547 1.245 1.64 0 .265-.024.621-.073 1.07l-.102 1.026-.132 1.23-.132 1.201zM42.686 16.538c.263.156.395.308.395.454 0 .352-.425 1.045-1.274 2.08-1.143 1.407-2.203 2.11-3.18 2.11-.712 0-1.068-.474-1.068-1.421 0-.4.146-1.631.439-3.692l.571-3.984.147-1.01.117-.806c.049-.342.073-.63.073-.865 0-.488-.136-.732-.41-.732-.762 0-1.582.84-2.46 2.52-.186-.167-.28-.333-.28-.499 0-.595.55-1.396 1.649-2.402 1.098-1.006 1.975-1.509 2.63-1.509.732 0 1.098.508 1.098 1.524 0 .195-.04.595-.117 1.2l-.132.982-.161 1.187-.6 4.19-.147.937c-.127.927-.19 1.548-.19 1.86 0 .42.121.63.365.63.82 0 1.665-.918 2.535-2.754zM39.74 4.893l1.23-3.033C42.066 1.411 42.965.791 43.668 0a.722.722 0 0 1 .146.425c0 1.308-1.357 2.798-4.072 4.468z"/>
        </g>
        <g fill="#111010">
            <path d="M54.124 20.356h9.3V22.8h-12.21V1.306h2.91zM77.374 22.8H76.19c-.26 0-.47-.04-.63-.12-.16-.08-.265-.25-.315-.51l-.3-1.41c-.4.36-.79.683-1.17.968-.38.285-.78.525-1.2.72-.42.195-.867.343-1.342.443a7.7 7.7 0 0 1-1.583.15c-.59 0-1.142-.083-1.657-.248a3.779 3.779 0 0 1-1.343-.742 3.535 3.535 0 0 1-.907-1.253c-.225-.505-.338-1.102-.338-1.792 0-.6.165-1.178.495-1.733.33-.555.863-1.047 1.598-1.477.735-.43 1.697-.783 2.887-1.058s2.645-.432 4.365-.472V13.08c0-1.18-.252-2.073-.757-2.678s-1.253-.907-2.243-.907c-.65 0-1.197.082-1.642.247-.445.165-.83.35-1.155.555a20.7 20.7 0 0 0-.84.555c-.235.165-.468.248-.698.248a.8.8 0 0 1-.472-.143 1.086 1.086 0 0 1-.323-.352l-.48-.855c.84-.81 1.745-1.415 2.715-1.815.97-.4 2.045-.6 3.225-.6.85 0 1.605.14 2.265.42.66.28 1.215.67 1.665 1.17.45.5.79 1.105 1.02 1.815.23.71.345 1.49.345 2.34v9.72zm-6.93-1.634a5.092 5.092 0 0 0 2.392-.547c.346-.176.676-.388.991-.638.315-.25.622-.535.922-.855V15.96c-1.23.04-2.275.137-3.135.292-.86.155-1.56.358-2.1.608s-.932.545-1.177.885c-.245.34-.368.72-.368 1.14 0 .4.065.745.195 1.035.13.29.305.527.525.712.22.185.48.32.78.405.3.085.625.128.975.128zM81.424 22.8V7.607h1.59c.38 0 .62.185.72.555l.195 1.56a7.795 7.795 0 0 1 1.883-1.695c.695-.44 1.502-.66 2.422-.66 1.03 0 1.863.285 2.498.855.635.57 1.092 1.34 1.372 2.31A4.755 4.755 0 0 1 94.1 8.116c.43-.26.888-.45 1.373-.57a6.13 6.13 0 0 1 1.477-.18c.8 0 1.513.127 2.138.382a4.232 4.232 0 0 1 1.59 1.118c.435.49.767 1.092.997 1.807.23.715.345 1.533.345 2.453V22.8h-2.67v-9.675c0-1.19-.26-2.093-.78-2.708-.52-.615-1.275-.922-2.265-.922-.44 0-.857.077-1.252.232a3.018 3.018 0 0 0-1.043.683 3.2 3.2 0 0 0-.712 1.132c-.175.455-.263.983-.263 1.583V22.8h-2.67v-9.675c0-1.22-.245-2.13-.735-2.73-.49-.6-1.205-.9-2.145-.9a3.39 3.39 0 0 0-1.837.532c-.565.355-1.083.838-1.553 1.448V22.8h-2.67zM106.144 22.8V.707h2.685v9.09a7.763 7.763 0 0 1 2.168-1.763c.815-.445 1.747-.667 2.797-.667.88 0 1.675.165 2.385.495.71.33 1.315.822 1.815 1.477.5.655.885 1.465 1.155 2.43.27.965.405 2.078.405 3.338 0 1.12-.15 2.162-.45 3.127-.3.965-.732 1.8-1.297 2.505a6.098 6.098 0 0 1-2.07 1.665c-.815.405-1.733.608-2.753.608-.98 0-1.812-.19-2.497-.57a5.68 5.68 0 0 1-1.793-1.59l-.135 1.38c-.08.38-.31.57-.69.57h-1.725zm6.78-13.304c-.87 0-1.632.2-2.287.6-.655.4-1.258.965-1.808 1.695v7.35c.48.66 1.013 1.125 1.598 1.395.585.27 1.237.405 1.957.405 1.42 0 2.51-.505 3.27-1.515.76-1.01 1.14-2.45 1.14-4.32 0-.99-.087-1.84-.262-2.55-.175-.71-.428-1.293-.758-1.748a2.947 2.947 0 0 0-1.215-.997c-.48-.21-1.025-.315-1.635-.315zM128.84 7.366c.91 0 1.75.152 2.52.457.77.305 1.434.745 1.994 1.32.56.575.998 1.285 1.313 2.13.315.845.472 1.808.472 2.888 0 .42-.045.7-.135.84-.09.14-.26.21-.51.21h-10.11c.02.96.15 1.795.39 2.505.24.71.57 1.302.99 1.777.42.475.92.83 1.5 1.065s1.23.353 1.95.353c.67 0 1.248-.078 1.733-.233a8.243 8.243 0 0 0 1.252-.502c.35-.18.643-.348.878-.503.235-.155.437-.232.607-.232.22 0 .39.085.51.255l.75.975c-.33.4-.725.747-1.185 1.042-.46.295-.952.538-1.477.728a9.385 9.385 0 0 1-1.628.427 9.94 9.94 0 0 1-1.665.143c-1.05 0-2.017-.178-2.902-.533a6.37 6.37 0 0 1-2.295-1.56c-.645-.685-1.148-1.532-1.508-2.542-.36-1.01-.54-2.17-.54-3.48 0-1.06.163-2.05.488-2.97a7 7 0 0 1 1.402-2.393 6.456 6.456 0 0 1 2.235-1.59c.88-.385 1.87-.577 2.97-.577zm.06 1.965c-1.29 0-2.306.372-3.046 1.117-.74.745-1.2 1.778-1.38 3.098h8.265c0-.62-.085-1.188-.255-1.703-.17-.515-.42-.96-.75-1.335a3.357 3.357 0 0 0-1.207-.87c-.475-.205-1.018-.307-1.628-.307z"/>
        </g>
    </g>
</svg>
