<svg width="161" height="32" viewBox="0 0 161 32" xmlns="http://www.w3.org/2000/svg">
    <g fill="none" fill-rule="evenodd">
        <path stroke="#000" stroke-width="2" d="M1.874 8.67v14.579h8.449"/>
        <path stroke="#000" stroke-width="2" d="M10.323 15.96h-8.45V9.517h8.45M15.703 24.163V9.518c4.652-.653 7.23.258 7.737 2.731.506 2.474-1.868 4.015-7.123 4.625M29.568 9.518h6.679M33.158 10.018v13.23h-3.59 6.68"/>
        <path stroke="#000" fill="#000" d="M76.421 5.515h3.055V16.46l-3.055.174v4.109h-4.068v2.506h-3.705v4.37h-3.345v3.861h-4.607v-3.86h-4.023v-4.371H53.49v-2.506h-3.901v-4.11H46.32V5.516h3.267V1.44h11.108v4.075h4.607V1.44h11.118z"/>
        <path fill="#FFF" d="M54.407 5.564v8.025H49.57V5.564z"/>
        <path stroke="#000" stroke-width="2" d="M90.942 8.371v15.231h7.704M104.182 24.43c0-9.968 1.56-14.951 4.678-14.951 3.12 0 4.68 4.983 4.68 14.95M104.182 19.081h9.358M119.811 24.43V11.512l5.584 7.568 6.035-7.568V24.43M146.113 12.443c0-2.129-2.7-3.117-8.1-2.964v14.123c5.4 0 8.1-1.082 8.1-3.247 0-2.267-2.7-3.402-8.1-3.405 5.4-.875 8.1-2.378 8.1-4.507zM160.696 9.479h-8.184V23.602h8.184M152.513 16.54h8.184M16.22 16.739c2.617 1.004 4.29 1.874 5.019 2.607.728.733 1.389 2.34 1.98 4.817"/>
    </g>
</svg>
