<svg width="81" height="15" viewBox="0 0 81 15" xmlns="http://www.w3.org/2000/svg">
    <g fill="#FFF" fill-rule="nonzero">
        <path d="M2.514 7.232 1.09 8.604a4.652 4.652 0 0 1-.211-1.336c0-1.641.683-2.968 2.048-3.982C3.923 2.548 5.34 2.18 7.18 2.18h2.9c1.09 0 2.203-.038 3.34-.115l-.712 1.802-.14.325c-.147.346-.335.519-.563.519-.035 0-.076-.003-.123-.009.064-.293.096-.527.096-.703 0-.387-.203-.628-.61-.725-.408-.097-1.423-.145-3.046-.145h-.852l-.466 4.254h1.714c.99 0 1.869-.047 2.636-.14-.668.802-1.341 1.203-2.021 1.203-.38 0-.92-.029-1.617-.088-.287-.017-.49-.026-.607-.026H6.9l-.088.765c-.124 1.113-.318 1.904-.585 2.373-.267.468-.79.94-1.569 1.415l1.925.15.782.07c.551.04 1.21.061 1.978.061 1.295 0 2.373-.419 3.234-1.257.1.112.15.217.15.317 0 .164-.314.5-.94 1.01-.915.744-1.914 1.117-2.998 1.117-1.002 0-2.443-.085-4.324-.255l-3.278-.3c-.112-.005-.507-.028-1.187-.07l1.608-1.212c.58.1 1.278.187 2.092.263.574-.222.961-.539 1.16-.949.2-.41.367-1.236.501-2.478l.695-6.223h-.308c-1.137 0-2.027.233-2.672.699-.644.465-.967 1.109-.967 1.929 0 .474.135.967.405 1.476zM16.726 9.29c1.3-2.468 2.58-3.701 3.84-3.701.329 0 .657.076.985.228l-1.24 1.354c-.187-.106-.427-.158-.72-.158-.61 0-1.253.493-1.93 1.48-.676.988-1.073 2.015-1.19 3.081l-.238 2.145-1.3.44.026-.264.062-.572.07-.571.457-4.184.053-.457c.04-.345.061-.627.061-.843 0-.358-.1-.537-.299-.537-.468 0-.934.501-1.397 1.503-.147-.111-.217-.225-.211-.342.017-.358.344-.831.98-1.42s1.138-.883 1.507-.883c.498 0 .747.328.747.984 0 .158-.014.372-.044.642l-.061.615-.08.738-.078.721zM25.611 11.442c.159.094.238.185.238.273 0 .21-.255.627-.765 1.248-.686.844-1.321 1.266-1.907 1.266-.428 0-.642-.285-.642-.853 0-.24.088-.979.264-2.215l.343-2.39.087-.607.07-.483a3.77 3.77 0 0 0 .045-.519c0-.293-.082-.44-.246-.44-.457 0-.95.505-1.477 1.512-.111-.1-.167-.199-.167-.298 0-.358.33-.838.989-1.442.66-.603 1.185-.905 1.578-.905.439 0 .659.305.659.914 0 .117-.024.357-.07.72l-.08.59-.096.711-.36 2.514-.089.563c-.076.556-.114.928-.114 1.116 0 .252.073.378.22.378.492 0 .999-.551 1.52-1.653zm-1.766-6.987.738-1.82c.656-.269 1.195-.64 1.617-1.115a.433.433 0 0 1 .088.254c0 .786-.814 1.68-2.443 2.681z"/>
        <g>
            <path d="M32.075 12.533h5.58V14h-7.326V1.103h1.746zM46.025 14h-.711a.849.849 0 0 1-.378-.072c-.096-.048-.16-.15-.19-.306l-.18-.846c-.24.216-.473.41-.701.58a4.018 4.018 0 0 1-.72.433c-.252.117-.52.205-.806.265a4.62 4.62 0 0 1-.95.09c-.353 0-.685-.05-.994-.148a2.267 2.267 0 0 1-.805-.446 2.121 2.121 0 0 1-.545-.751c-.135-.303-.202-.662-.202-1.076 0-.36.099-.706.297-1.04.198-.332.517-.628.958-.886.441-.258 1.019-.47 1.733-.634.714-.165 1.587-.26 2.619-.284v-.711c0-.708-.152-1.243-.455-1.606-.303-.363-.751-.545-1.345-.545-.39 0-.719.05-.986.149a3.73 3.73 0 0 0-.693.333 12.42 12.42 0 0 0-.504.333.727.727 0 0 1-.418.148.48.48 0 0 1-.284-.085.651.651 0 0 1-.193-.212l-.288-.513a5.206 5.206 0 0 1 1.629-1.089 5.03 5.03 0 0 1 1.935-.36c.51 0 .963.084 1.359.252.396.168.729.402.999.702.27.3.474.663.612 1.089.138.426.207.894.207 1.404V14zm-4.158-.981a3.055 3.055 0 0 0 1.435-.329c.207-.104.405-.232.594-.382.19-.15.374-.321.554-.513V9.896c-.738.024-1.365.083-1.881.176-.516.093-.936.214-1.26.364-.324.15-.56.327-.707.531-.147.204-.22.432-.22.684 0 .24.039.447.117.621.078.174.183.317.315.428.132.11.288.192.468.243.18.05.375.076.585.076zM48.455 14V4.883h.954c.228 0 .372.111.432.333l.117.936a4.677 4.677 0 0 1 1.13-1.017c.416-.264.9-.396 1.453-.396.618 0 1.117.171 1.498.513.381.342.656.804.824 1.386a2.853 2.853 0 0 1 1.197-1.449c.258-.156.532-.27.823-.342.291-.072.587-.108.887-.108.48 0 .907.077 1.282.23.375.153.693.376.954.67.261.294.46.656.599 1.085.138.429.207.919.207 1.471V14H59.21V8.195c0-.714-.156-1.255-.468-1.624-.312-.37-.765-.554-1.36-.554-.263 0-.514.047-.75.14a1.81 1.81 0 0 0-1.054 1.089c-.105.273-.157.589-.157.949V14h-1.602V8.195c0-.732-.147-1.278-.441-1.638-.294-.36-.723-.54-1.287-.54-.396 0-.764.107-1.103.32a3.61 3.61 0 0 0-.931.868V14h-1.602zM63.287 14V.743h1.61v5.454c.379-.438.812-.79 1.301-1.057.49-.267 1.049-.401 1.679-.401.528 0 1.005.099 1.43.297a2.89 2.89 0 0 1 1.09.887c.3.393.53.879.693 1.458.162.579.243 1.246.243 2.002a6.29 6.29 0 0 1-.27 1.877c-.18.579-.44 1.08-.779 1.503a3.659 3.659 0 0 1-1.242.999 3.66 3.66 0 0 1-1.651.364c-.588 0-1.088-.114-1.499-.342a3.408 3.408 0 0 1-1.075-.954l-.081.828c-.048.228-.186.342-.414.342h-1.035zm4.068-7.983c-.522 0-.98.12-1.373.36s-.754.579-1.084 1.017v4.41c.288.396.607.675.958.837a2.77 2.77 0 0 0 1.175.243c.852 0 1.506-.303 1.962-.909.456-.606.684-1.47.684-2.592 0-.594-.053-1.104-.158-1.53-.105-.426-.256-.775-.454-1.048a1.768 1.768 0 0 0-.73-.599 2.425 2.425 0 0 0-.98-.189zM76.904 4.739c.546 0 1.05.092 1.512.275.462.183.86.447 1.197.792.336.345.598.77.787 1.278.19.507.284 1.084.284 1.732 0 .252-.027.42-.081.504-.054.084-.156.126-.306.126H74.23c.012.576.09 1.077.234 1.503.144.426.342.782.594 1.067.252.285.552.498.9.639a3.09 3.09 0 0 0 1.17.211c.402 0 .748-.046 1.04-.14.29-.092.54-.193.75-.301.21-.108.386-.208.527-.301.141-.093.263-.14.365-.14.132 0 .234.051.306.153l.45.585c-.198.24-.435.449-.711.626a4.427 4.427 0 0 1-.887.436c-.315.114-.64.2-.976.257a5.964 5.964 0 0 1-1 .085c-.63 0-1.21-.106-1.74-.32a3.822 3.822 0 0 1-1.378-.935c-.387-.411-.688-.92-.904-1.526-.216-.606-.324-1.302-.324-2.088 0-.636.097-1.23.292-1.782a4.2 4.2 0 0 1 .842-1.435 3.874 3.874 0 0 1 1.34-.954c.529-.231 1.123-.347 1.783-.347zm.036 1.179c-.774 0-1.383.224-1.827.67-.444.448-.72 1.067-.828 1.859h4.959c0-.372-.051-.712-.153-1.021a2.276 2.276 0 0 0-.45-.801 2.014 2.014 0 0 0-.725-.522 2.443 2.443 0 0 0-.976-.185z"/>
        </g>
    </g>
</svg>
