<svg width="102" height="103" xmlns="http://www.w3.org/2000/svg" xmlns:xlink="http://www.w3.org/1999/xlink">
    <defs>
        <linearGradient x1="50%" y1="0%" x2="50%" y2="100%" id="c">
            <stop stop-color="#F9DF58" offset="0%"/>
            <stop stop-color="#FBDCA5" offset="100%"/>
        </linearGradient>
        <linearGradient x1="50%" y1="0%" x2="50%" y2="100%" id="d">
            <stop stop-color="#F9DF58" offset="0%"/>
            <stop stop-color="#FBDCA5" offset="100%"/>
        </linearGradient>
        <filter x="-8%" y="-6.5%" width="116.1%" height="118.2%" filterUnits="objectBoundingBox" id="a">
            <feOffset dy="2" in="SourceAlpha" result="shadowOffsetOuter1"/>
            <feGaussianBlur stdDeviation="2" in="shadowOffsetOuter1" result="shadowBlurOuter1"/>
            <feComposite in="shadowBlurOuter1" in2="SourceAlpha" operator="out" result="shadowBlurOuter1"/>
            <feColorMatrix values="0 0 0 0 0 0 0 0 0 0 0 0 0 0 0 0 0 0 0.5 0" in="shadowBlurOuter1"/>
        </filter>
        <path d="M50.514 96C66.296 96 94 83.635 94 60.435 94 37.235 74.524 19 50.5 19S7 37.236 7 60.435C7 83.635 34.731 96 50.514 96z" id="b"/>
    </defs>
    <g fill="none" fill-rule="evenodd">
        <g transform="translate(1 1)">
            <use fill="#000" filter="url(#a)" xlink:href="#b"/>
            <path stroke="#000" d="M50.5 19.5c11.918 0 22.705 4.536 30.495 11.957 7.728 7.36 12.505 17.56 12.505 28.978 0 9.88-5.118 17.754-12.163 23.516C72.04 91.554 59.378 95.5 50.514 95.5c-8.866 0-21.538-3.947-30.843-11.552C12.621 78.186 7.5 70.313 7.5 60.435c0-11.417 4.777-21.617 12.505-28.978C27.795 24.037 38.582 19.5 50.5 19.5z" stroke-linejoin="square" fill="#FBDCA5"/>
        </g>
        <path d="M64 22.637 101 1l-6.958 52c-3.7-9.919-7.551-16.705-11.553-20.36C78.487 28.987 72.324 25.653 64 22.638zM38 22.398 1 1l7.457 53c3.847-10.404 7.802-17.438 11.864-21.102 4.063-3.665 9.956-7.165 17.679-10.5z" stroke="#000" fill="#FFF"/>
        <path fill="url(#c)" d="M69.471 24 99 1 63 21.358z" transform="translate(1 1)"/>
        <path fill="url(#c)" transform="matrix(-1 0 0 1 39 1)" d="M7.433 24 37 1 1 21.735z"/>
        <path fill="#000" d="M44 66h13l-6.5 7z"/>
        <path d="M51 74c-.94 3.049-2.672 4.93-5.194 5.643-2.521.714-6.123.357-10.806-1.07M51 74c.94 3.049 2.672 4.93 5.194 5.643 2.521.714 6.123.357 10.806-1.07M56 69.21c8.26 2.465 14.782 3.297 19.567 2.494C80.352 70.902 88.163 67.667 99 62M47 69.21c-8.26 2.465-14.782 3.297-19.567 2.494C22.648 70.902 14.837 67.667 4 62" stroke="#000"/>
        <path d="M55 70c8.962 4 15.796 6 20.5 6 4.704 0 11.538-2 20.5-6M47 70c-8.962 4-15.796 6-20.5 6-4.704 0-11.538-2-20.5-6" stroke="#000"/>
        <path d="M37 21.437 50.296 45 63 21.17C57.053 20.39 52.818 20 50.296 20c-2.522 0-6.954.479-13.296 1.437z" fill="url(#d)" transform="translate(1 1)"/>
        <path d="m20.445 58.914 3.626.086c.067-6.658 1.877-9.987 5.429-9.987 3.552 0 5.329 3.329 5.329 9.987h4.059c.35-5.52-.118-9.323-1.401-11.41-1.284-2.088-3.89-3.285-7.82-3.59-2.812-.022-5.292 1.175-7.44 3.59-2.149 2.414-2.742 6.19-1.782 11.324zM63.445 58.914l3.626.086c.067-6.658 1.877-9.987 5.429-9.987 3.552 0 5.329 3.329 5.329 9.987h4.059c.35-5.52-.118-9.323-1.401-11.41-1.284-2.088-3.89-3.285-7.82-3.59-2.812-.022-5.292 1.175-7.44 3.59-2.149 2.414-2.742 6.19-1.782 11.324z" fill="#000"/>
    </g>
</svg>
