<svg width="141" height="84" xmlns="http://www.w3.org/2000/svg" xmlns:xlink="http://www.w3.org/1999/xlink">
    <defs>
        <linearGradient x1="50%" y1="0%" x2="50%" y2="100%" id="c">
            <stop stop-color="#44535E" offset="0%"/>
            <stop offset="100%"/>
        </linearGradient>
        <linearGradient x1="50%" y1="0%" x2="50%" y2="100%" id="d">
            <stop stop-color="#44535E" offset="0%"/>
            <stop offset="100%"/>
        </linearGradient>
        <filter x="-8%" y="-6.6%" width="116.1%" height="118.4%" filterUnits="objectBoundingBox" id="a">
            <feOffset dy="2" in="SourceAlpha" result="shadowOffsetOuter1"/>
            <feGaussianBlur stdDeviation="2" in="shadowOffsetOuter1" result="shadowBlurOuter1"/>
            <feComposite in="shadowBlurOuter1" in2="SourceAlpha" operator="out" result="shadowBlurOuter1"/>
            <feColorMatrix values="0 0 0 0 0 0 0 0 0 0 0 0 0 0 0 0 0 0 0.5 0" in="shadowBlurOuter1"/>
        </filter>
        <path d="M69.514 76C85.296 76 113 63.795 113 40.897 113 18 93.524 0 69.5 0S26 17.999 26 40.897 53.731 76 69.514 76z" id="b"/>
    </defs>
    <g fill="none" fill-rule="evenodd">
        <g transform="translate(0 2)">
            <use fill="#000" filter="url(#a)" xlink:href="#b"/>
            <path stroke="#000" d="M69.5.5c11.919 0 22.707 4.477 30.497 11.802 7.726 7.264 12.503 17.328 12.503 28.595 0 9.749-5.117 17.518-12.16 23.203-9.299 7.506-21.96 11.4-30.826 11.4-8.867 0-21.54-3.895-30.845-11.402C31.62 58.412 26.5 50.644 26.5 40.898c0-11.268 4.777-21.332 12.503-28.596C46.793 4.977 57.58.5 69.5.5z" stroke-linejoin="square" fill="#FFF"/>
        </g>
        <path d="m82 4 19.05 3.93L141 41l-28.652-6.953c-3.738-9.815-7.628-16.53-11.67-20.147C96.634 10.284 90.407 6.984 82 4zM59 4 39.95 7.93 0 41l28.652-6.953c3.738-9.815 7.628-16.53 11.67-20.147C44.366 10.284 50.593 6.984 59 4z" stroke="#000" fill="#FFF"/>
        <path d="M101.19 5.694 138 37c-19.693-15.196-33.08-24.702-40.16-28.52C90.758 4.662 85.812 2.168 83 1l18.19 4.694z" fill="url(#c)" transform="translate(0 2)"/>
        <path d="M20.19 5.694 57 37C37.307 21.804 23.92 12.298 16.84 8.48 9.758 4.662 4.812 2.168 2 1l18.19 4.694z" fill="url(#c)" transform="matrix(-1 0 0 1 59 2)"/>
        <path fill="#000" d="M63 48h13l-6.5 7z"/>
        <path d="M74 51.21c8.26 2.465 14.782 3.297 19.567 2.494C98.352 52.902 106.163 49.667 117 44M66 51.21c-8.26 2.465-14.782 3.297-19.567 2.494C41.648 52.902 33.837 49.667 23 44" stroke="#000"/>
        <path d="M74 51c8.962 4 15.796 6 20.5 6 4.704 0 11.538-2 20.5-6M66 51c-8.962 4-15.796 6-20.5 6-4.704 0-11.538-2-20.5-6" stroke="#000"/>
        <path d="M56 2.097 69.296 25 82 1.838C76.053.613 71.818 0 69.296 0 66.774 0 62.342.699 56 2.097z" fill="url(#d)" transform="translate(0 2)"/>
        <path d="m82.421 27.08 3.433-.08c.063 6.214 1.776 9.322 5.139 9.322 3.363 0 4.84-2.156 4.429-6.468h4.48c.316 3.249-.134 5.847-1.348 7.796-1.215 1.948-3.683 3.065-7.403 3.35-2.662.02-5.01-1.096-7.043-3.35-2.034-2.254-2.596-5.777-1.687-10.57zM57.579 27.08 54.146 27c-.063 6.214-1.776 9.322-5.139 9.322-3.363 0-4.84-2.156-4.429-6.468h-4.48c-.316 3.249.134 5.847 1.348 7.796 1.215 1.948 3.683 3.065 7.403 3.35 2.662.02 5.01-1.096 7.043-3.35 2.034-2.254 2.596-5.777 1.687-10.57z" fill="#000"/>
        <path d="M58 65c5.635-3.333 9.806-5 12.513-5 2.707 0 6.536 1.667 11.487 5M83 27c5.326-.058 12.969 3 17 3M58 27c-5.326-.058-12.969 3-17 3" stroke="#000"/>
    </g>
</svg>
