<svg width="149" height="84" xmlns="http://www.w3.org/2000/svg" xmlns:xlink="http://www.w3.org/1999/xlink">
    <defs>
        <linearGradient x1="50%" y1="0%" x2="50%" y2="100%" id="c">
            <stop stop-color="#798F8C" offset="0%"/>
            <stop stop-color="#44535E" offset="100%"/>
        </linearGradient>
        <linearGradient x1="50%" y1="0%" x2="50%" y2="100%" id="d">
            <stop stop-color="#798F8C" offset="0%"/>
            <stop stop-color="#44535E" offset="100%"/>
        </linearGradient>
        <linearGradient x1="50%" y1="0%" x2="50%" y2="100%" id="e">
            <stop stop-color="#798F8C" offset="0%"/>
            <stop stop-color="#44535E" offset="100%"/>
        </linearGradient>
        <filter x="-8%" y="-6.6%" width="116.1%" height="118.4%" filterUnits="objectBoundingBox" id="a">
            <feOffset dy="2" in="SourceAlpha" result="shadowOffsetOuter1"/>
            <feGaussianBlur stdDeviation="2" in="shadowOffsetOuter1" result="shadowBlurOuter1"/>
            <feComposite in="shadowBlurOuter1" in2="SourceAlpha" operator="out" result="shadowBlurOuter1"/>
            <feColorMatrix values="0 0 0 0 0 0 0 0 0 0 0 0 0 0 0 0 0 0 0.5 0" in="shadowBlurOuter1"/>
        </filter>
        <path d="M74.514 76C90.296 76 118 63.795 118 40.897 118 18 98.524 0 74.5 0S31 17.999 31 40.897 58.731 76 74.514 76z" id="b"/>
    </defs>
    <g fill="none" fill-rule="evenodd">
        <g transform="translate(0 2)">
            <use fill="#000" filter="url(#a)" xlink:href="#b"/>
            <path stroke="#000" d="M74.5.5c11.919 0 22.707 4.477 30.497 11.802 7.726 7.264 12.503 17.328 12.503 28.595 0 9.749-5.117 17.518-12.16 23.203-9.299 7.506-21.96 11.4-30.826 11.4-8.867 0-21.54-3.895-30.845-11.402C36.62 58.412 31.5 50.644 31.5 40.898c0-11.268 4.777-21.332 12.503-28.596C51.793 4.977 62.58.5 74.5.5z" stroke-linejoin="square" fill="#FFF"/>
        </g>
        <path d="m87 4 18.816 3.924L149 16.931 116.974 34c-3.692-9.8-7.534-16.505-11.527-20.116C101.454 10.274 95.305 6.98 87 4zM61 4 0 18.69 32.08 35c3.765-10.205 7.637-17.105 11.614-20.7C47.67 10.705 53.44 7.272 61 4z" stroke="#000" fill="#FFF"/>
        <path fill="url(#c)" d="M99.376 7.022 147 15 88 2z" transform="translate(0 2)"/>
        <path fill="url(#d)" transform="matrix(-1 0 0 1 64 2)" d="M13.727 7.132 61 17 3 2z"/>
        <path fill="#000" d="M68 48h13l-6.5 7z"/>
        <path d="M79 50.21c8.26 2.465 14.782 3.297 19.567 2.494 4.785-.802 12.596-4.037 23.433-9.704M71 50.21c-8.26 2.465-14.782 3.297-19.567 2.494C46.648 51.902 38.837 48.667 28 43" stroke="#000"/>
        <path d="M79 51c8.962 4 15.796 6 20.5 6 4.704 0 11.538-2 20.5-6M71 51c-8.962 4-15.796 6-20.5 6-4.704 0-11.538-2-20.5-6" stroke="#000"/>
        <path d="M61 2.437 74.296 26 87 2.17C81.053 1.39 76.818 1 74.296 1 71.774 1 67.342 1.479 61 2.437z" fill="url(#e)" transform="translate(0 2)"/>
        <path d="M86.445 26.086 90.071 26c.067 6.658 1.877 9.987 5.429 9.987 3.552 0 5.329-3.329 5.329-9.987h4.059c.35 5.52-.118 9.323-1.401 11.41-1.284 2.088-3.89 3.285-7.82 3.59-2.812.022-5.292-1.175-7.44-3.59-2.149-2.414-2.742-6.19-1.782-11.324zM44.445 26.086 48.071 26c.067 6.658 1.877 9.987 5.429 9.987 3.552 0 5.329-3.329 5.329-9.987h4.059c.35 5.52-.118 9.323-1.401 11.41-1.284 2.088-3.89 3.285-7.82 3.59-2.812.022-5.292-1.175-7.44-3.59-2.149-2.414-2.742-6.19-1.782-11.324z" fill="#000"/>
        <path stroke="#000" d="M63 64.5h24M88 26.67l16-.34M45 26.67l16-.34"/>
    </g>
</svg>
